<svg version="1.2" xmlns="http://www.w3.org/2000/svg" viewBox="0 0 421 134" width="421" height="134">
  <style>.a{fill:#000}</style>
  <path class="a" d="m22.8 104.5q-10.3 0-16.6-5.8-6.3-5.9-6.3-15.6 0-10.9 8-16.5 8-5.7 24.1-5.7h8.1v-5.1q0-9.4-8.8-9.4-7.6 0-7.6 7.5l-21.5-0.1-0.2-0.4q-0.4-9.9 8.2-16.4 8.5-6.5 22.3-6.5 13.8 0 21.9 6.7 8.1 6.6 8.1 18.8v26.9q0 10.7 3.8 20.2h-22q-2-3.8-2.9-8.2-7 9.6-18.6 9.6zm9.4-31.7q-5 0-7.6 2.4-2.5 2.5-2.5 6.1 0 3.6 2 5.5 2.2 1.8 5.5 1.8 6.6 0 10.5-4.7v-11.1zm43.6-72.6h22.3v102.8h-22.3zm76.2 60.4v-1.8q0-11.2-9.3-11.2-9 0-10.1 12.6l0.2 0.4zm20.5 35.9v0.1zm-62.6-26.7v-2.5q0-16.7 8.7-26.8 8.7-10.2 24.2-10.1 14.5 0 22.7 8.7 8.3 8.6 8.3 23.6v11.7h-40.7l-0.2 0.4q0.8 5.7 4.6 9.2 3.8 3.4 9.9 3.4 6.1 0 9.8-0.9 3.6-0.9 10-3.5l5.3 13.5q-4.9 3.6-12.4 5.8-7.4 2.2-15.7 2.2-15.6 0-25.1-9.8-9.4-9.7-9.4-24.9zm111.9 37.6q-10.1 0-16.1-7.7v33.8h-22.4v-98.8h20.9l0.8 7.9q6.3-9.2 16.6-9.2 13.1 0 20.5 10.1 7.3 10 7.3 27l0.1 1.4q0 16.4-7.4 26-7.2 9.5-20.3 9.5zm-5.7-56.8q-7.4 0-10.5 5.4v29.7q2.9 4.6 10.6 4.6 10.9 0 10.9-18.4l0.1-1.4q0-19.9-11.1-19.9zm47.2-18.8v-17.7h22.2v17.7h12.1v15.5h-12.1v32.6q0 7.2 5.8 7.2 3.6 0 6.4-0.6l1.6 16.4q-6.8 1.6-13.7 1.6-11.2 0-16.7-5.9-5.6-5.9-5.6-18.5v-32.8h-10v-15.5zm67 24.4v46.8h-22.4v-71.3h21.1l0.7 10.4q4.8-11.8 14.6-11.8 3.6 0 6.2 0.9l-2.3 20.1-8-0.1q-7.5 0-9.9 5zm47.2 48.3q-10.3 0-16.6-5.8-6.3-5.9-6.3-15.6 0-10.9 8-16.5 8-5.7 24.1-5.7h8.1v-5.1q0-9.4-8.8-9.4-7.6 0-7.6 7.5l-21.5-0.1-0.2-0.4q-0.4-9.9 8.2-16.4 8.5-6.5 22.3-6.5 13.8 0 21.9 6.7 8.1 6.6 8.1 18.8v26.9q0 10.7 3.8 20.3l-22-0.1q-2-3.8-2.9-8.2-7 9.6-18.6 9.6zm9.4-31.7q-5.1 0-7.6 2.4-2.5 2.5-2.5 6.1 0 3.6 2 5.5 2.2 1.8 5.5 1.8 6.6 0 10.5-4.7v-11.1z"/>
</svg>