<?xml version="1.0" encoding="utf-8"?>
<svg xmlns="http://www.w3.org/2000/svg" viewBox="0 0 26 26">

<style>
.bg{fill:#0052CC;}
.fg{fill:#FFFFFF;}
</style>

<!-- Background -->
<path class="bg"
      d="M3.6,0h18.8c2,0,3.6,1.6,3.6,3.6v18.8c0,2-1.6,3.6-3.6,3.6H3.6
         c-2,0-3.6-1.6-3.6-3.6V3.6C0,1.6,1.6,0,3.6,0z"/>

<!-- Board -->
<rect class="fg" x="3.5" y="4" width="19" height="18" rx="1.3"/>

<!-- Columns -->
<rect class="bg" x="9.8" y="4" width="0.35" height="18"/>
<rect class="bg" x="15.9" y="4" width="0.35" height="18"/>

<!-- Status lines -->
<rect class="bg" x="4.8" y="5.4" width="3.8" height="0.5" rx="0.25"/>
<rect class="bg" x="11.0" y="5.4" width="3.8" height="0.5" rx="0.25"/>
<rect class="bg" x="17.1" y="5.4" width="3.8" height="0.5" rx="0.25"/>

<!-- Column 1 tickets -->
<rect class="bg" x="4.8" y="7.3" width="3.9" height="2.2" rx="0.35"/>
<rect class="bg" x="4.8" y="10.3" width="3.9" height="2.2" rx="0.35"/>
<rect class="bg" x="4.8" y="13.3" width="3.9" height="2.2" rx="0.35"/>
<rect class="fg" x="5.5" y="8.0" width="1.8" height="0.3" rx="0.15"/>
<circle class="fg" cx="7.9" cy="8.8" r="0.22"/>

<!-- Column 2 tickets -->
<rect class="bg" x="10.9" y="7.8" width="3.9" height="2.2" rx="0.35"/>
<rect class="bg" x="10.9" y="10.8" width="3.9" height="2.2" rx="0.35"/>
<rect class="fg" x="11.6" y="8.5" width="1.8" height="0.3" rx="0.15"/>
<circle class="fg" cx="14.0" cy="9.3" r="0.22"/>

<!-- Column 3 ticket -->
<rect class="bg" x="17.0" y="8.8" width="3.9" height="2.2" rx="0.35"/>
<rect class="fg" x="17.7" y="9.5" width="1.8" height="0.3" rx="0.15"/>
<circle class="fg" cx="20.1" cy="10.3" r="0.22"/>

</svg>